<svg xmlns="http://www.w3.org/2000/svg" version="1.1" xmlns:xlink="http://www.w3.org/1999/xlink" xmlns:svgjs="http://svgjs.com/svgjs" width="118" height="40"><svg xmlns="http://www.w3.org/2000/svg" xmlns:xlink="http://www.w3.org/1999/xlink" width="118" zoomAndPan="magnify" viewBox="0 0 88.5 30.000001" height="40" preserveAspectRatio="xMidYMid meet" version="1.0"><defs><g></g></defs><g fill="#ffffff" fill-opacity="1"><g transform="translate(3.284495, 26.880959)"><g><path d="M 17.792969 -21.113281 C 17.734375 -21.257812 17.675781 -21.433594 17.621094 -21.546875 C 17.15625 -23.050781 15.769531 -24.117188 14.183594 -24.117188 C 13.460938 -24.117188 12.765625 -23.917969 12.1875 -23.511719 C 12.015625 -23.425781 11.871094 -23.308594 11.757812 -23.222656 C 11.324219 -22.847656 10.890625 -22.15625 10.484375 -21.113281 L 2.425781 -1.097656 C 2.339844 -0.835938 2.3125 -0.578125 2.367188 -0.40625 C 2.398438 -0.230469 2.542969 0.0273438 3.003906 0.0273438 L 6.179688 0.0273438 C 6.558594 0.0273438 6.84375 -0.203125 6.988281 -0.578125 L 8.636719 -4.707031 L 14.960938 -4.707031 C 15.28125 -4.707031 15.570312 -4.851562 15.714844 -5.113281 C 15.886719 -5.34375 15.914062 -5.660156 15.828125 -5.949219 L 14.789062 -8.519531 C 14.644531 -8.867188 14.328125 -9.097656 13.953125 -9.097656 L 10.371094 -9.097656 L 14.066406 -18.457031 C 14.097656 -18.515625 14.125 -18.542969 14.125 -18.542969 L 14.238281 -18.542969 C 14.238281 -18.542969 14.238281 -18.542969 14.269531 -18.484375 L 21.433594 -0.605469 C 21.578125 -0.203125 21.867188 0.0273438 22.269531 0.0273438 L 25.359375 0.0273438 C 25.824219 0.0273438 25.9375 -0.261719 25.996094 -0.40625 C 26.054688 -0.578125 26.023438 -0.835938 25.910156 -1.097656 Z M 17.792969 -21.113281 "></path></g></g></g><g fill="#ffffff" fill-opacity="1"><g transform="translate(30.114744, 26.880959)"><g><path d="M 5.777344 -23.800781 L 3.121094 -23.800781 C 2.886719 -23.800781 2.3125 -23.683594 2.3125 -22.789062 L 2.3125 -0.980469 C 2.3125 -0.0859375 2.886719 0.0273438 3.121094 0.0273438 L 5.777344 0.0273438 C 6.007812 0.0273438 6.585938 -0.0859375 6.585938 -0.980469 L 6.585938 -22.789062 C 6.585938 -23.683594 6.007812 -23.800781 5.777344 -23.800781 Z M 5.777344 -23.800781 "></path></g></g></g><g fill="#ffffff" fill-opacity="1"><g transform="translate(37.479039, 26.880959)"><g><path d="M 22.011719 -16.898438 C 22.011719 -16.867188 22.011719 -16.839844 22.011719 -16.8125 C 22.011719 -16.78125 22.011719 -16.753906 22.011719 -16.722656 Z M 22.558594 -1.242188 L 17.503906 -9.90625 C 18.917969 -10.082031 20.015625 -10.6875 20.738281 -11.667969 C 21.546875 -12.855469 21.980469 -14.558594 22.011719 -16.8125 C 21.980469 -19.0625 21.546875 -20.769531 20.738281 -21.953125 C 19.871094 -23.195312 18.429688 -23.800781 16.464844 -23.800781 L 3.148438 -23.800781 C 2.886719 -23.800781 2.3125 -23.714844 2.3125 -22.789062 L 2.3125 -20.507812 C 2.3125 -19.613281 2.886719 -19.527344 3.148438 -19.527344 L 15.714844 -19.527344 C 16.464844 -19.527344 16.957031 -19.324219 17.246094 -18.890625 C 17.5625 -18.457031 17.707031 -17.765625 17.707031 -16.8125 C 17.707031 -15.859375 17.5625 -15.164062 17.246094 -14.730469 C 16.957031 -14.296875 16.464844 -14.097656 15.714844 -14.097656 L 3.148438 -14.097656 C 2.886719 -14.097656 2.3125 -14.007812 2.3125 -13.113281 L 2.3125 -0.980469 C 2.3125 -0.0859375 2.886719 0.0273438 3.148438 0.0273438 L 5.777344 0.0273438 C 6.035156 0.0273438 6.585938 -0.0859375 6.585938 -0.980469 L 6.585938 -9.820312 L 12.679688 -9.820312 L 17.910156 -0.546875 C 18.023438 -0.375 18.109375 -0.230469 18.226562 -0.144531 C 18.371094 -0.0273438 18.574219 0.0273438 18.832031 0.0273438 L 22.011719 0.0273438 C 22.355469 0.0273438 22.617188 -0.203125 22.675781 -0.546875 C 22.703125 -0.835938 22.675781 -1.070312 22.558594 -1.242188 Z M 22.558594 -1.242188 "></path></g></g></g><g fill="#ffffff" fill-opacity="1"><g transform="translate(60.959061, 26.880959)"><g><path d="M 19.671875 -5.171875 L 9.503906 -5.171875 C 8.898438 -5.171875 8.40625 -5.257812 8 -5.371094 C 7.625 -5.515625 7.367188 -5.71875 7.132812 -6.007812 C 6.902344 -6.324219 6.730469 -6.757812 6.644531 -7.308594 C 6.613281 -7.453125 6.613281 -7.65625 6.585938 -7.800781 C 6.585938 -7.800781 6.613281 -9.878906 6.644531 -9.878906 L 19.554688 -9.878906 C 19.785156 -9.878906 20.363281 -9.992188 20.363281 -10.890625 L 20.363281 -13.171875 C 20.363281 -14.066406 19.785156 -14.152344 19.554688 -14.152344 L 4.652344 -14.125 C 3.8125 -14.066406 3.089844 -13.632812 2.6875 -12.910156 C 2.542969 -12.679688 2.425781 -12.449219 2.367188 -12.1875 L 2.3125 -8.550781 L 2.3125 -8.40625 C 2.339844 -7.046875 2.484375 -5.890625 2.6875 -4.9375 C 2.945312 -3.785156 3.378906 -2.832031 3.929688 -2.109375 C 4.507812 -1.359375 5.257812 -0.835938 6.179688 -0.519531 C 7.078125 -0.171875 8.144531 -0.0273438 9.417969 -0.0273438 L 19.671875 -0.0273438 C 19.929688 -0.0273438 20.507812 -0.117188 20.507812 -1.011719 L 20.507812 -4.1875 C 20.507812 -5.082031 19.929688 -5.171875 19.671875 -5.171875 Z M 19.699219 -23.859375 L 3.089844 -23.859375 C 2.859375 -23.859375 2.3125 -23.742188 2.3125 -22.820312 L 2.3125 -20.566406 C 2.3125 -19.671875 2.859375 -19.582031 3.089844 -19.582031 L 19.699219 -19.554688 C 19.929688 -19.554688 20.507812 -19.671875 20.507812 -20.566406 L 20.507812 -22.847656 C 20.507812 -23.742188 19.929688 -23.859375 19.699219 -23.859375 Z M 19.699219 -23.859375 "></path></g></g></g></svg><style>@media (prefers-color-scheme: light) { :root { filter: none; } }
</style></svg>