<svg xmlns="http://www.w3.org/2000/svg" xmlns:xlink="http://www.w3.org/1999/xlink" width="118" zoomAndPan="magnify" viewBox="0 0 88.5 30.000001" height="40" preserveAspectRatio="xMidYMid meet" version="1.0"><defs><g/><clipPath id="90a861d34d"><path d="M 1.183594 0 L 86.832031 0 L 86.832031 29.03125 L 1.183594 29.03125 Z M 1.183594 0 " clip-rule="nonzero"/></clipPath></defs><g clip-path="url(#90a861d34d)"><path fill="#ffffff" d="M 1.183594 0 L 87.316406 0 L 87.316406 36.496094 L 1.183594 36.496094 Z M 1.183594 0 " fill-opacity="1" fill-rule="nonzero"/><path fill="#ffffff" d="M 1.183594 0 L 87.316406 0 L 87.316406 29.195312 L 1.183594 29.195312 Z M 1.183594 0 " fill-opacity="1" fill-rule="nonzero"/><path fill="#0f0424" d="M 1.183594 0 L 87.316406 0 L 87.316406 29.195312 L 1.183594 29.195312 Z M 1.183594 0 " fill-opacity="1" fill-rule="nonzero"/></g><g fill="#ffffff" fill-opacity="1"><g transform="translate(25.285794, 17.706064)"><g><path d="M 8.238281 -9.773438 C 8.210938 -9.839844 8.183594 -9.921875 8.15625 -9.976562 C 7.941406 -10.671875 7.300781 -11.164062 6.566406 -11.164062 C 6.230469 -11.164062 5.910156 -11.070312 5.644531 -10.882812 C 5.5625 -10.84375 5.496094 -10.789062 5.441406 -10.75 C 5.242188 -10.578125 5.042969 -10.257812 4.855469 -9.773438 L 1.125 -0.507812 C 1.082031 -0.386719 1.070312 -0.265625 1.097656 -0.1875 C 1.109375 -0.105469 1.175781 0.0117188 1.390625 0.0117188 L 2.863281 0.0117188 C 3.035156 0.0117188 3.167969 -0.09375 3.234375 -0.265625 L 4 -2.179688 L 6.925781 -2.179688 C 7.074219 -2.179688 7.207031 -2.246094 7.273438 -2.367188 C 7.355469 -2.472656 7.367188 -2.621094 7.328125 -2.753906 L 6.847656 -3.945312 C 6.78125 -4.105469 6.632812 -4.210938 6.457031 -4.210938 L 4.800781 -4.210938 L 6.511719 -8.542969 C 6.523438 -8.570312 6.539062 -8.585938 6.539062 -8.585938 L 6.59375 -8.585938 C 6.59375 -8.585938 6.59375 -8.585938 6.605469 -8.558594 L 9.921875 -0.28125 C 9.988281 -0.09375 10.121094 0.0117188 10.308594 0.0117188 L 11.742188 0.0117188 C 11.953125 0.0117188 12.007812 -0.121094 12.035156 -0.1875 C 12.0625 -0.265625 12.046875 -0.386719 11.996094 -0.507812 Z M 8.238281 -9.773438 "/></g></g></g><g fill="#ffffff" fill-opacity="1"><g transform="translate(37.706349, 17.706064)"><g><path d="M 2.675781 -11.019531 L 1.445312 -11.019531 C 1.335938 -11.019531 1.070312 -10.964844 1.070312 -10.550781 L 1.070312 -0.453125 C 1.070312 -0.0390625 1.335938 0.0117188 1.445312 0.0117188 L 2.675781 0.0117188 C 2.78125 0.0117188 3.046875 -0.0390625 3.046875 -0.453125 L 3.046875 -10.550781 C 3.046875 -10.964844 2.78125 -11.019531 2.675781 -11.019531 Z M 2.675781 -11.019531 "/></g></g></g><g fill="#ffffff" fill-opacity="1"><g transform="translate(41.115511, 17.706064)"><g><path d="M 10.1875 -7.824219 C 10.1875 -7.808594 10.1875 -7.796875 10.1875 -7.78125 C 10.1875 -7.769531 10.1875 -7.753906 10.1875 -7.742188 Z M 10.441406 -0.574219 L 8.101562 -4.585938 C 8.757812 -4.667969 9.265625 -4.949219 9.601562 -5.402344 C 9.976562 -5.949219 10.175781 -6.738281 10.1875 -7.78125 C 10.175781 -8.824219 9.976562 -9.613281 9.601562 -10.164062 C 9.199219 -10.738281 8.53125 -11.019531 7.621094 -11.019531 L 1.457031 -11.019531 C 1.335938 -11.019531 1.070312 -10.976562 1.070312 -10.550781 L 1.070312 -9.492188 C 1.070312 -9.078125 1.335938 -9.039062 1.457031 -9.039062 L 7.273438 -9.039062 C 7.621094 -9.039062 7.847656 -8.945312 7.984375 -8.746094 C 8.128906 -8.542969 8.195312 -8.222656 8.195312 -7.78125 C 8.195312 -7.339844 8.128906 -7.019531 7.984375 -6.820312 C 7.847656 -6.617188 7.621094 -6.523438 7.273438 -6.523438 L 1.457031 -6.523438 C 1.335938 -6.523438 1.070312 -6.484375 1.070312 -6.070312 L 1.070312 -0.453125 C 1.070312 -0.0390625 1.335938 0.0117188 1.457031 0.0117188 L 2.675781 0.0117188 C 2.792969 0.0117188 3.046875 -0.0390625 3.046875 -0.453125 L 3.046875 -4.546875 L 5.871094 -4.546875 L 8.289062 -0.253906 C 8.34375 -0.175781 8.382812 -0.105469 8.4375 -0.0664062 C 8.503906 -0.0117188 8.597656 0.0117188 8.71875 0.0117188 L 10.1875 0.0117188 C 10.351562 0.0117188 10.46875 -0.09375 10.496094 -0.253906 C 10.511719 -0.386719 10.496094 -0.496094 10.441406 -0.574219 Z M 10.441406 -0.574219 "/></g></g></g><g fill="#ffffff" fill-opacity="1"><g transform="translate(51.985142, 17.706064)"><g><path d="M 9.105469 -2.394531 L 4.398438 -2.394531 C 4.117188 -2.394531 3.890625 -2.433594 3.703125 -2.488281 C 3.53125 -2.554688 3.410156 -2.648438 3.304688 -2.78125 C 3.195312 -2.929688 3.117188 -3.128906 3.074219 -3.382812 C 3.0625 -3.449219 3.0625 -3.542969 3.046875 -3.609375 C 3.046875 -3.609375 3.0625 -4.574219 3.074219 -4.574219 L 9.050781 -4.574219 C 9.160156 -4.574219 9.425781 -4.625 9.425781 -5.042969 L 9.425781 -6.097656 C 9.425781 -6.511719 9.160156 -6.550781 9.050781 -6.550781 L 2.152344 -6.539062 C 1.765625 -6.511719 1.429688 -6.3125 1.242188 -5.976562 C 1.175781 -5.871094 1.125 -5.761719 1.097656 -5.644531 L 1.070312 -3.957031 L 1.070312 -3.890625 C 1.082031 -3.261719 1.148438 -2.726562 1.242188 -2.285156 C 1.363281 -1.75 1.566406 -1.308594 1.820312 -0.976562 C 2.085938 -0.628906 2.433594 -0.386719 2.863281 -0.242188 C 3.277344 -0.0820312 3.769531 -0.0117188 4.359375 -0.0117188 L 9.105469 -0.0117188 C 9.226562 -0.0117188 9.492188 -0.0546875 9.492188 -0.46875 L 9.492188 -1.9375 C 9.492188 -2.351562 9.226562 -2.394531 9.105469 -2.394531 Z M 9.121094 -11.046875 L 1.429688 -11.046875 C 1.324219 -11.046875 1.070312 -10.992188 1.070312 -10.5625 L 1.070312 -9.519531 C 1.070312 -9.105469 1.324219 -9.066406 1.429688 -9.066406 L 9.121094 -9.050781 C 9.226562 -9.050781 9.492188 -9.105469 9.492188 -9.519531 L 9.492188 -10.578125 C 9.492188 -10.992188 9.226562 -11.046875 9.121094 -11.046875 Z M 9.121094 -11.046875 "/></g></g></g></svg>